Death Race*2008*[BluRay][720p][ENG, POL]

General information:
Country: USA, Germany, UK 
Release: 21 August 2008
Genre: Action, Sci-Fi, Thriller 
Director: Paul W.S. Anderson
Screenplay: Paul W.S. Anderson
Original Music: Paul Haslinger
Cinematography by: Scott Kevan 
Duration: 1h 50mn
Language: English, Polish
Subtitles: English, Polish
Rating: 7.1/10 - 19849 votes

Cast:
Jason Statham  ...  Jensen Ames  
Joan Allen  ...  Hennessey  
Ian McShane  ...  Coach  
Tyrese Gibson  ...  Machine Gun Joe  
Natalie Martinez  ...  Case  
Max Ryan  ...  Pachenko  
Jason Clarke  ...  Ulrich  
Frederick Koehler  ...  Lists (as Fred Koehler)  
Jacob Vargas  ...  Gunner  
Justin Mader  ...  Travis Colt  
Robert LaSardo  ...  Grimm  
Robin Shou  ...  14K  
Benz Antoine  ...  Joe's Navigator  
Danny Blanco Hall  ...  Joe's Navigator  
Christian Paul  ...  Joe's Navigator  

Plot:
Ex-con Jensen Ames is forced by the warden of a notorious prison to compete in our post-industrial world's most popular sport: a car race in which inmates must brutalize and kill one another on the road to victory.

Specifications:
General
Format                           : Matroska
Overall bit rate                 : 6 293 Kbps

Video
Format                           : AVC
Format/Info                      : Advanced Video Codec
Format profile                   : High@L4.1
Format settings, CABAC           : Yes
Format settings, ReFrames        : 5 frames
Muxing mode                      : Container profile=Unknown@4.1
Codec ID                         : V_MPEG4/ISO/AVC
Bit rate                         : 4 893 Kbps
Width                            : 1 280 pixels
Height                           : 544 pixels
Display aspect ratio             : 2.35:1
Frame rate                       : 23.976 fps

Audio 1
Format                           : AC-3
Format/Info                      : Audio Coding 3
Mode extension                   : CM (complete main)
Codec ID                         : A_AC3
Bit rate mode                    : Constant
Bit rate                         : 640 Kbps
Channel(s)                       : 6 channels
Channel positions                : Front: L C R, Side: L R, LFE
Sampling rate                    : 48.0 KHz
Stream size                      : 506 MiB (10%)
Title                            : English

Audio 2
Format                           : DTS
Format/Info                      : Digital Theater Systems
Codec ID                         : A_DTS
Bit rate mode                    : Constant
Bit rate                         : 755 Kbps
Channel(s)                       : 6 channels
Channel positions                : Front: L C R, Side: L R, LFE
Sampling rate                    : 48.0 KHz
Bit depth                        : 24 bits
Stream size                      : 597 MiB (12%)
Title                            : Polish
Language                         : Polish

Text 1
Format                           : UTF-8
Codec ID                         : S_TEXT/UTF8
Codec ID/Info                    : UTF-8 Plain Text
Title                            : English

Text 2
Format                           : UTF-8
Codec ID                         : S_TEXT/UTF8
Codec ID/Info                    : UTF-8 Plain Text
Title                            : Polish
Language                         : Polish
